<svg xmlns="http://www.w3.org/2000/svg" width="961" height="961" viewBox="0 0 31 31"><path d="M1 1h7v7h-7zM14 1h1v1h-1zM17 1h1v3h-1v-1h-1v1h1v1h-1v1h-1v-1h-1v-1h-1v-1h2v-1h2zM19 1h2v3h-1v-1h-1zM23 1h7v7h-7zM2 2v5h5v-5zM9 2h1v1h-1zM12 2h1v1h-1zM24 2v5h5v-5zM3 3h3v3h-3zM25 3h3v3h-3zM10 4h2v1h-2zM19 4h1v1h-1zM9 5h1v1h-1zM12 5h2v1h-1v1h-1v2h-1v-2h-1v-1h2zM20 5h1v2h-1v1h1v1h1v2h1v-1h1v2h-1v1h1v2h2v-2h1v5h1v1h-2v-3h-1v1h-1v2h2v1h-4v-1h1v-1h-1v1h-1v-2h1v-1h1v-2h-1v1h-1v-1h-1v-1h1v-3h-1v-1h-1v1h-1v-1h-1v-2h1v1h1v-1h-1v-1h2zM14 6h1v1h-1zM9 7h1v1h-1zM13 7h1v1h-1zM15 7h1v2h1v2h-2v-2h-1v-1h1zM21 7h1v1h-1zM1 9h1v1h-1zM3 9h1v1h-1zM5 9h1v3h-1v1h-2v-1h1v-2h1zM7 9h1v1h-1zM10 9h1v1h1v1h-2v1h-1v-1h-1v-1h2zM25 9h1v1h-1zM28 9h1v1h-1zM2 10h1v1h-1zM13 10h1v1h1v1h-1v1h-1v-1h-1v-1h1zM19 10h1v3h-1v2h-1v1h3v1h-2v1h1v1h-2v-1h-1v1h-2v-2h-1v-1h1v-1h1v-1h1v-1h1v-1h1zM26 10h1v1h-1zM29 10h1v2h-1v1h1v3h-1v1h1v3h-1v1h-1v-2h1v-1h-1v-3h1v-1h-1v-2h-1v-1h2zM7 11h1v1h-1zM1 12h1v1h1v2h-1v1h-1zM6 12h1v1h1v1h-1v1h-1zM8 12h1v1h-1zM11 12h1v2h-1zM16 12h1v1h-1zM25 12h1v1h-1zM9 13h1v1h1v2h-1v-1h-1v1h-2v-1h1v-1h1zM13 14h2v1h-1v1h-1v1h-1v-2h1zM4 15h1v1h-1zM6 16h1v1h-1zM9 16h1v1h-1zM16 16v1h1v-1zM2 17h2v1h1v1h-3zM5 17h1v1h-1zM7 17h2v2h-1v-1h-1zM13 17h1v1h-1zM6 18h1v1h1v1h-1v1h1v-1h1v1h2v1h4v1h-2v1h-1v-1h-1v2h-1v-2h-1v-1h-3v-1h-1v-2h1zM10 18h1v1h-1zM1 19h1v1h-1zM9 19h1v1h-1zM13 19h2v1h-1v1h-1zM2 20h1v1h-1zM11 20h1v1h-1zM17 20h2v1h1v1h-2v1h1v3h-1v2h1v-1h1v-1h1v-2h-1v-2h1v-2h1v1h4v2h1v2h-1v2h1v1h-2v1h-2v-1h1v-1h1v-1h-3v1h-1v1h1v1h1v1h-3v-1h-1v1h-4v-2h1v1h1v-7h-1v-1h1zM26 20h1v1h-1zM1 21h1v1h-1zM3 21h2v1h-2zM22 22v3h3v-3zM27 22h3v2h-1v1h-1v-2h-1zM1 23h7v7h-7zM15 23h1v4h-2v-1h1v-1h-2v-1h2zM23 23h1v1h-1zM2 24v5h5v-5zM3 25h3v3h-3zM9 25h1v1h-1zM12 25h1v2h-1zM29 25h1v3h-1v-1h-2v-1h2zM9 27h1v1h-1zM13 27h1v2h-1v1h-1v-1h-1v-1h2zM28 28h1v1h1v1h-2zM9 29h2v1h-2zM26 29h1v1h-1z"/></svg>